<svg xmlns="http://www.w3.org/2000/svg" width="560" height="120" viewBox="0 0 560 120" role="img" aria-labelledby="title desc">
  <title id="title">AUMOVIO logo</title>
  <desc id="desc">Logotipo AUMOVIO com símbolo laranja e texto preto.</desc>
  <rect width="560" height="120" fill="white"/>
  <g transform="translate(20 18)" fill="#ff4c0a">
    <path d="M0 56C10 40 19 23 33 4c2-3 8-3 10 1l8 14c2 3 1 6-1 9-10 11-18 23-31 31-8 5-24 2-19-9z"/>
    <path d="M53 24c5-4 12-4 16 1l19 26c4 6 2 14-4 17-10 5-21 3-28-5l-8-10c-4-4-4-10 0-14z"/>
  </g>
  <text x="182" y="78" fill="#000000" font-family="Segoe UI, Arial, Helvetica, sans-serif" font-size="68" letter-spacing="1">AUMOVIO</text>
</svg>
